<?xml version="1.0" encoding="iso-8859-1"?>
<!-- Uploaded to: SVG Repo, www.svgrepo.com, Generator: SVG Repo Mixer Tools -->
<!DOCTYPE svg PUBLIC "-//W3C//DTD SVG 1.1//EN" "http://www.w3.org/Graphics/SVG/1.1/DTD/svg11.dtd">
<svg fill="#000000" height="800px" width="800px" version="1.1" id="Capa_1" xmlns="http://www.w3.org/2000/svg" xmlns:xlink="http://www.w3.org/1999/xlink" 
	 viewBox="0 0 439.341 439.341" xml:space="preserve">
<g>
	<path d="M439.341,132.504c0-45.675-37.159-82.834-82.834-82.834c-21.876,0-42.506,8.451-58.091,23.797
		c-13.77,13.559-22.226,31.136-24.249,50.125c-24.626,8.723-41.811,32.412-41.811,58.971v7.061
		c0,27.326,10.979,51.685,30.916,68.587c2.698,2.287,5.558,4.408,8.535,6.394v95.066c0,16.542,13.458,30,30,30h84.561
		c16.542,0,30-13.458,30-30V250.561c14.885-16.241,22.972-37.495,22.972-60.938V132.504z M386.369,369.67h-84.561
		c-5.514,0-10-4.486-10-10v-84.748c13.411,5.166,28.364,7.894,44.041,7.894c22.466,0,43.442-5.605,60.52-15.965v92.818
		C396.369,365.184,391.883,369.67,386.369,369.67z M419.341,189.623c0,43.095-34.333,73.193-83.492,73.193
		s-83.492-30.099-83.492-73.193v-7.061c0-19.821,14.084-37.294,33.489-41.546c0.065-0.014,0.126-0.035,0.19-0.05
		c2.892-0.619,5.869-0.938,8.856-0.938h26.268c10.388,0,18.839,8.451,18.839,18.84c0,10.388-8.451,18.839-18.839,18.839h-36.297
		c-5.523,0-10,4.478-10,10v25.07c0,5.522,4.477,10,10,10c5.523,0,10-4.478,10-10v-15.07h26.297
		c17.959,0,33.104-12.254,37.528-28.839h30.654c5.523,0,10-4.477,10-10c0-5.522-4.477-10-10-10h-30.654
		c-4.424-16.584-19.569-28.84-37.528-28.84h-26.192c5.848-28.623,31.38-50.358,61.539-50.358c34.647,0,62.834,28.188,62.834,62.834
		V189.623z"/>
	<path d="M369.153,301.178c-3.905-3.904-10.237-3.904-14.143,0l-10.922,10.922l-10.922-10.922c-3.905-3.904-10.237-3.904-14.143,0
		c-3.905,3.905-3.905,10.237,0,14.143l10.922,10.922l-10.922,10.922c-3.905,3.905-3.905,10.237,0,14.143
		c1.953,1.952,4.512,2.929,7.071,2.929c2.559,0,5.119-0.977,7.071-2.929l10.922-10.922l10.922,10.922
		c1.953,1.952,4.512,2.929,7.071,2.929c2.559,0,5.119-0.977,7.071-2.929c3.905-3.905,3.905-10.237,0-14.143l-10.922-10.922
		l10.922-10.922C373.058,311.415,373.058,305.083,369.153,301.178z"/>
	<path d="M165.174,123.591c-2.023-18.989-10.479-36.565-24.249-50.124C125.34,58.122,104.709,49.67,82.834,49.67
		C37.159,49.67,0,86.83,0,132.504v57.119c0,23.443,8.087,44.697,22.972,60.938V359.67c0,16.542,13.458,30,30,30h84.561
		c16.542,0,30-13.458,30-30v-95.066c2.977-1.986,5.837-4.107,8.535-6.394c19.937-16.903,30.917-41.261,30.917-68.587v-7.061
		C206.984,156.003,189.799,132.314,165.174,123.591z M147.533,359.67c0,5.514-4.486,10-10,10H52.972c-5.514,0-10-4.486-10-10
		v-92.818c17.078,10.359,38.054,15.965,60.52,15.965c15.677,0,30.63-2.729,44.041-7.895V359.67z M186.984,189.623
		c0,43.094-34.334,73.192-83.492,73.193C54.333,262.817,20,232.718,20,189.623v-57.119C20,97.858,48.187,69.67,82.834,69.67
		c30.16,0,55.691,21.735,61.539,50.358h-26.192c-17.959,0-33.104,12.255-37.528,28.84H50c-5.523,0-10,4.478-10,10
		c0,5.523,4.477,10,10,10h30.654c4.424,16.585,19.569,28.839,37.528,28.839h26.297v15.07c0,5.522,4.477,10,10,10
		c5.523,0,10-4.478,10-10v-25.07c0-5.522-4.477-10-10-10h-36.297c-10.388,0-18.839-8.451-18.839-18.839
		c0-10.389,8.451-18.84,18.839-18.84h26.268c2.991,0,5.973,0.319,8.869,0.94c0.06,0.014,0.117,0.034,0.177,0.047
		c19.405,4.252,33.489,21.725,33.489,41.547V189.623z"/>
	<path d="M84.331,301.178c-3.905-3.904-10.237-3.904-14.143,0c-3.905,3.905-3.905,10.237,0,14.143l10.922,10.922l-10.922,10.922
		c-3.905,3.905-3.905,10.237,0,14.143c1.953,1.952,4.512,2.929,7.071,2.929c2.559,0,5.119-0.977,7.071-2.929l10.922-10.922
		l10.922,10.922c1.953,1.952,4.512,2.929,7.071,2.929s5.119-0.977,7.071-2.929c3.905-3.905,3.905-10.237,0-14.143l-10.922-10.922
		l10.922-10.922c3.905-3.905,3.905-10.237,0-14.143c-3.905-3.904-10.237-3.904-14.143,0l-10.922,10.922L84.331,301.178z"/>
</g>
</svg>